<svg id="Layer_1" data-name="Layer 1" xmlns="http://www.w3.org/2000/svg" viewBox="0 0 302.07 117.81"><title>logo-sitio</title><path d="M284.07,109.82a5,5,0,1,0-1.18,6.88,5,5,0,0,0,1.18-6.88v0Zm-1.86,6a3.78,3.78,0,1,1,1-5.41v0A3.89,3.89,0,0,1,282.2,115.79ZM281,109.52l-4.49,3.18,0.67,1,1.85-1.31,0.31,0.43a0.9,0.9,0,0,1-.08,1.33,4.68,4.68,0,0,0-1,1.1l0.7,1a4.48,4.48,0,0,1,.93-1,1.28,1.28,0,0,0,.58-1.5l0,0a1.32,1.32,0,0,0,1.65.12,1.4,1.4,0,0,0,.69-1.08,3,3,0,0,0-.74-1.8A10.13,10.13,0,0,0,281,109.52Zm0.44,3.28c-0.47.33-1,0-1.35-.53l-0.32-.45,1.29-.92a5,5,0,0,1,.39.51C281.91,112.06,281.81,112.53,281.43,112.8ZM122.52,87h3v2.05H124.7l-4,22.44h-3.79l-2.56-14.29-2.56,14.29H108l-4-22.44h-0.79V87h5l2.69,15,2.69-15h3.54l2.68,15Zm15.57,0h5.57v2.05h-0.79v20.29h0.79v2.05h-5.57v-8.69H135v8.69h-5.53v-2.05h0.79v-6.64h-0.79v-2.05h0.79V89.05h-0.79V87H135v13.65h3.13V87Zm9.5,0h6.33v2.05h-0.79v20.29h0.79v2.05h-6.33v-2.05h0.79V89.05h-0.79V87Zm18,10.37c2.18,2.75,3.07,4.8,3.07,7.49,0,4.39-3,6.7-6.89,6.7a7.31,7.31,0,0,1-3.92-1l0.86-1.74a5.76,5.76,0,0,0,3,.66,2.51,2.51,0,0,0,2.59-2.69c0-2.62-1.14-4.21-3.29-6.92s-2.82-4.62-2.82-6.86a5.78,5.78,0,0,1,6.19-6.19,7,7,0,0,1,3.23.76v3h-2.05L165.22,89a2.82,2.82,0,0,0-.86-0.09,2.22,2.22,0,0,0-2,2.34C162.41,93.13,163.42,94.62,165.6,97.36Zm19.65,12H186v2.05h-5.15l-3.54-12.64V111.4h-5.53v-2.05h0.79V89.05h-0.79V87h5.53V98.06L182.81,87h2.59v2.05h-0.79l-3.22,6.54ZM201.2,87H204v2.05h-0.79L199,101.38v8h0.79v2.05h-6.32v-2.05h0.79V102l-4.14-12.93h-0.79V87h5.09l3.29,10.24ZM66.81,74.73l2.66,3.21L56.62,88.57,54,85.35,55.57,84,29.33,52.3l-1.6,1.33-2.66-3.21L37.91,39.79,40.57,43,39,44.33,65.21,76.06Zm36.35-20.47-1.86.94a17.44,17.44,0,0,0-4.69-4.81,28.48,28.48,0,0,0-8.81-4.09c2.63-4.21,5.11-10.57,1.13-18.4C84.22,18.58,72.54,19,62.5,24.06L51.87,29.45l1.89,3.72,1.86-.94L74.25,68.94l-1.86.94,1.89,3.72,13-6.6L80.93,54.47a17.68,17.68,0,0,1,7.17,3.27,15.48,15.48,0,0,1,5.21,6.2l11.75-6ZM78.84,50.35l-12-23.56c2.9-1.47,7,.6,10.34,7.12C80.8,40.94,80.4,48.27,78.84,50.35ZM102,11.84L101.1,7.76,128.43,2l1.52,7.22-5.3,1.11-1-3.07-7.42,1.56,4.84,23,9.63-2,0.86,4.08-9.62,2,2.77,13.18,8.41-1.77L133,44.11l5.3-1.11,1.52,7.22-28.56,6-0.86-4.08,2-.43L109.7,38.52l-2,.43-0.86-4.07,2-.43-4.84-23ZM181.49,35A13.29,13.29,0,0,0,175,22.87c1.53-.42,5.39-3.53,5.69-8.46,0.46-7.75-7.91-13-19.39-13.69L149.26,0,149,4.16l2.08,0.12-2.47,41.1-2.08-.13-0.25,4.16,12.06,0.72C169.09,50.79,180.69,48.2,181.49,35ZM163.56,5.29c3.05,0.69,5.2,2.43,4.85,8.32-0.31,5.12-2.82,6.58-5.75,6.79ZM162.4,24.56a22.7,22.7,0,0,0,2.92-.08c1.12,0.78,3.77,4,3.42,9.79-0.6,10-3.43,11.29-7.63,11.61ZM209.56,8.24L184.45,48l-2-.64-1.27,4,7.46,2.39L194,45.32l10.88,3.49-0.55,9.92,12.78,4.1,1.27-4-2-.64,2.72-46.94Zm-4.47,36.28-8.81-2.83L206.35,25.6ZM300,65.94l-3.09,2.8-1.4-1.54L265,94.84l5.2,5.74,7.18-4,3.64,4-9,8.19L252.14,86.84l3.1-2.8,1.39,1.54,30.51-27.65-1.41-1.54,3.09-2.8Zm-255,28.69,3.13,2.74-11,12.53-3.13-2.75,1.37-1.57L25.32,96.7l-1.38,1.56-3.13-2.75L22.19,94,4.51,78.42,3.13,80,0,77.24,19.26,55.31l8,7-3.58,4.07-5.21-3.8L12.76,69,30.44,84.56l6.49-7.39,3.13,2.75-6.5,7.39L43.69,96.2Zm209.1-22.1-6.76,10.14-24.63-16.4,2.31-3.47L226.82,64l22.82-34.26-1.74-1.15,2.31-3.47L264.1,34.3l-2.31,3.47-1.74-1.15L237.24,70.89l6.45,4.3,6-5.66Z" transform="translate(2.05 0.16)" style="fill:#fff"/><path d="M111.89,87h0.88l-1.84,10.31a0.78,0.78,0,0,0,0-.09l-0.42-2.32Zm-8.55,2.89h-0.92V87h-0.7v3.72h0.92l4,22.44h5.18l0.15-.83h-4.64Zm16.07,5,0.44,2.44c0.62-3.49,1.49-8.36,1.84-10.28H120.8S120.09,91,119.4,94.84Zm-5,7.08c-0.13.74-.28,1.54-0.42,2.36,0.73,4,1.59,8.87,1.59,8.87h5.19l0.15-.83h-4.64S115.12,106.15,114.36,101.92Zm22.9-2.1V87h-0.83V99.82h0.83Zm-7.87-9.94H128.6V87h-0.83v3.72h0.79v9.11h0.83V89.88Zm0,18.63v-5H128.6v-2.89h-0.83v3.72h0.79v4.13h0.83Zm-0.79.82h-0.83v3.72H135v-0.83H128.6v-2.89Zm8.66-5.8H135.8v0.83h0.63v8.69h7.23v-0.83h-6.4v-8.69Zm10.29,5V89.88h-0.79V87h-0.83v3.72h0.79V108.5h0.83Zm-0.79.82h-0.83v3.72h8v-0.83h-7.15v-2.89Zm17.76-19.6-0.16,0a0.92,0.92,0,0,0-.6.28l0.5,2.29h3.32V91.46h-2.74S164.61,90.22,164.52,89.74Zm-1.58,18.42a1.88,1.88,0,0,0,.5-1.35c0-2.37-1.07-3.83-3.11-6.41s-3-4.83-3-7.37a7.23,7.23,0,0,1,1.42-4.48,6.91,6.91,0,0,0-2,5.1c0,2.54.87,4.68,3,7.37s3.11,4,3.11,6.41a2.12,2.12,0,0,1-.2.89A1.64,1.64,0,0,0,162.94,108.16Zm-5.51,3.13-0.66-.39,1.08-2.2-0.71-.43-1.46,3,1.09,0.67a8.31,8.31,0,0,0,4.37,1.27,7.12,7.12,0,0,0,5.8-2.52,7.92,7.92,0,0,1-5.18,1.76A8.08,8.08,0,0,1,157.43,111.29Zm20.75-6.48v3.8l1.25,4.45H186v-0.83h-5.78ZM181.89,87h-0.94l-2.79,5.64,0,1.86ZM171,109.34h-0.83v3.72h7.19v-0.83H171v-2.89Zm0.79-.83V89.88H171V87h-0.83v3.72h0.79v17.8h0.83Zm25.55-15.23,0.42,1.31L200.32,87h-0.86Zm-4.71,15.23h0.83v-6.4c-0.08-.23-3.58-11.18-3.92-12.22h-1V87h-0.83v3.72h1.24l3.69,11.53v6.27Zm0,0.83h-0.83v3.72h8v-0.83h-7.15v-2.89ZM41.25,81l-5.45,6.2,1.18,1,4.43-5,1-1.18-1.18-1h0ZM19.63,94.48L20,94.1,4.65,80.65,4.31,81l-1,1.18-1.18-1L-1,78.43l-1,1.16,1.18,1,3.13,2.75,1.18,1,1-1.18,0.34-.38L19,95.26ZM18.83,66.9l4,2.94L24,70.69,25,69.62l3.58-4.07,1-1.18-1.18-1h0l0,0-3.58,4.07-0.95,1.08-1.16-.85-4-2.95L15,68.88l1.18,1Zm14.05,39.22,0.34-.38-7.75-6.81-0.34.38-1,1.18-1.18-1L19.78,96.7l-1,1.16,1.18,1,3.13,2.75,1.18,1,1-1.18,0.34-.38,6.56,5.77ZM49.4,98.39l0,0-11,12.53-1,1.18-1.18-1L33,108.34l-1,1.16,1.18,1,3.13,2.75,1.18,1,1-1.18,11-12.53,1-1.18-1.18-1h0ZM26.31,56.83l1,1.21,1.21-1,0.39-.32L52.16,84.8l0.8-.66,0.39-.33L29.12,54.52l-0.39.32-1.21,1-1-1.21-2.66-3.21h0l-1.2,1,1,1.22ZM70.48,79.15L57.63,89.77l-1.21,1-1-1.21-2.66-3.21h0l-1.19,1,1,1.22,2.66,3.21,1,1.21,1.22-1L70.28,81.35l1.21-1-1-1.21h0Zm4.6-42.49a24,24,0,0,1,2.34,7.39l1,1.89a23.19,23.19,0,0,0-2.55-11.32c-1.77-3.48-3.95-5.86-6-6.53a4,4,0,0,0-.6-0.15l1.61,3.17A16.42,16.42,0,0,1,75.07,36.67Zm31.34,24-0.67-1.32L94,65.35l-1.4.71-0.71-1.4A14,14,0,0,0,87.14,59,16,16,0,0,0,84,57.14l1.78,3.51c0.19,0.13.38,0.23,0.56,0.38a14.06,14.06,0,0,1,4.76,5.67l0.71,1.4,1.41-.71,11.75-6ZM75,75l-1.41.71-0.71-1.4L71,70.6l0-.08h0l-1.4.71,0.71,1.4,1.89,3.72,0.71,1.41,1.4-.71,13-6.6,1.4-.71L88,68.41ZM51.6,35.92l0.71,1.4,1.4-.71,0.46-.23L70.71,69l1-.49,0.45-.23L54.92,34.34l-0.45.23-1.4.71-0.71-1.4-1.89-3.72,0-.09h0L49,30.8l0.71,1.41Zm54.51,3.35-0.85-4.07h0l-1.54.32L104,37.05l0.86,4.08,0.32,1.54,1.54-.32,0.5-.11,1.8,8.57,1-.22,0.5-.1-2.12-10.1-0.5.1-1.54.32ZM99.19,14l0.33,1.54,1.54-.33,0.5-.1,3.86,18.42,1-.22,0.5-.11-4.19-20-0.5.1-1.53.32-0.33-1.54L99.56,8.09h0L98,8.4l0.32,1.54Zm22.18-3,0.55,1.72L122.36,14l1.39-.29,5.3-1.12,1.54-.32-0.32-1.53L125,11.89l-1.39.29-0.43-1.35-0.55-1.72-4.49.95,0.32,1.53Zm2.74,27.73,6.55-1.37L132.2,37l-0.32-1.53-8.08,1.69ZM109.74,56.54l-0.85-4.08h0l-1.54.32,0.32,1.54,0.85,4.08,0.32,1.54,1.54-.32,28.56-6,1.54-.32-0.32-1.54-28.56,6-1.54.32Zm54-12.79c1.73-.82,3-3,3.44-9.58,0.27-4.47-1.48-7.13-2.39-8.06l-0.91,0-0.13,2.22a11.41,11.41,0,0,1,1.79,7.3C165.28,39.92,164.63,42.34,163.74,43.75Zm-17.1-.06,0.51,0,2.27-38-0.5,0-1.57-.09,0.09-1.57,0.25-4.14-1.55-.1L146,1.41l-0.26,4.16-0.09,1.57,1.57,0.09,0.51,0-2.18,36.36Zm17.71-25.25c1.29-.56,2.29-1.85,2.48-4.92,0.22-3.71-.6-5.26-1.83-6l-0.2,3.37a10.71,10.71,0,0,1,.39,4.15A7.9,7.9,0,0,1,164.35,18.44Zm12.82,28.89c-4.22,3.35-10.59,4.89-18.91,4.39L146.2,51l-1.57-.09,0.1-1.57L145,45.19l-1.55-.09-0.09,1.57-0.25,4.16L143,52.4l1.57,0.1,12.06,0.73C166.09,53.79,173.06,51.73,177.17,47.33Zm6.6-1.21L208,7.77l-1.09-.35-0.65,1L182.69,45.77l0.26,0.08Zm4.47,9.13-0.07,0-7.46-2.4-1.5-.48,0.48-1.5L181,46.9l-1.49-.47L179,47.93l-1.27,4-0.49,1.5,1.51,0.48,7.46,2.4,1.16,0.37,0.65-1Zm15.4-12.84,0.71-10.66-2.13,3.4-0.44,6.66Zm0.15,17.84-1.16-.37,0.08-1.22,0.49-8.71-8.56-2.75-0.89,1.4,7.47,2.4-0.49,8.71-0.07,1.21,1.16,0.37,12.78,4.11,1.5,0.48,0.48-1.5v0h0ZM226,61.49l0.43,0.28,21.07-31.64L247,29.84,245.73,29l0.87-1.31,2.32-3.47h0l-1.32-.87-0.88,1.31-2.3,3.47-0.87,1.31,1.31,0.87,0.42,0.28L225.07,60.9Zm-5.36,5.22,0.87-1.31,2.31-3.47h0L222.47,61l-0.87,1.31-2.31,3.47-0.88,1.31L219.73,68l24.63,16.4,1.31,0.87,0.87-1.3-24.63-16.4Zm25.79,2.11L242.5,72.5l1,0.68,4.8-4.55-1-.68Zm28,26.25-4.67,2.61,0.84,0.92,5.75-3.23-0.83-.93Zm-24.47-8.33,1.16-1.06,3.09-2.8,0,0-1.07-1.16-1.17,1.06-3.09,2.8-1.16,1.06,1.05,1.17,19.88,21.92,1,1.17,1.17-1.06h0L251,87.9Zm33.59-30.45,1.16-1.06,3.09-2.8,0,0-1.05-1.16-1.17,1.06-3.09,2.8-1.17,1.06,1.06,1.16,0.34,0.38-27,24.48L256.4,83l0.35,0.38,28.17-25.54-0.34-.38Z" transform="translate(2.05 0.16)" style="fill:#c51c1c"/></svg>